<svg xmlns="http://www.w3.org/2000/svg" width="1500" height="379" viewBox="0 0 1500 379">
  <defs>
    <style>
      .cls-1 {
        fill-rule: evenodd;
      }
    </style>
  </defs>
  <path id="Preenchimento_de_Cor_1" data-name="Preenchimento de Cor 1" class="cls-1" d="M1193.2,133.554a5.091,5.091,0,0,1,.94-1.552c1.34,0.137,2.06.451,2.48,1.552,0.93,1.566-.21,7.81-0.62,9.617a4.917,4.917,0,0,1-1.55.31c-1.38-1.389-1.94-1.611-1.87-4.653C1193.29,137.655,1192.48,134.717,1193.2,133.554Zm-1.77,26.944c2.87-.033,4.01.74,5.95,1.586,1.67,3.821,1.4,19.106.39,23.783v38.845c0,4.647.38,10.275-.39,14.27a1.375,1.375,0,0,0-.8.4,1.374,1.374,0,0,1-.79-0.4c-1.01-.577-0.45.086-0.79-1.189-1.31-2.124-1.2-12.137-1.99-15.459-2.82-11.881-1.98-28.84-1.98-43.6C1191.03,173.234,1189.89,165.187,1191.43,160.5Zm8.43-72.026a11.248,11.248,0,0,1,.44,3.5c0.8,1.17.29,3.115,0,4.38a7.263,7.263,0,0,1-3.51.876V96.356c-1.1-1.536-.45-5.938.44-7.008,0.32-.382.55-0.494,0.87-0.876h1.76Zm269.56,278.994h-62.68a1.334,1.334,0,0,1-1.75-.875c-1.24-2.015-.44-7.614-0.44-10.512V260.6c0-11.034,1.49-24.414-.44-34.6-4.12-1.36-11.26-.438-16.21-0.438h-34.19c-3.02-4.985-1.37-23.621-1.32-31.534-1.26-1.983-.49-12.451-0.44-15.768a6.462,6.462,0,0,0-1.75-.875c-0.93.915-1.7,1.188-3.51,1.313a7.893,7.893,0,0,1-.43-2.627c1.38-2.234.23-5.668,0.87-8.76a81.809,81.809,0,0,0,1.76-13.577,8.077,8.077,0,0,0-2.63-.438c-4.46,3.478-15.86,4.35-15.78,11.387,1.63,2.71-.5,11.046.43,15.767,0.88,4.415.88,12.872,0.88,18.834V207.6c1.24,5.317,1.28,12.062,1.32,17.519h-0.88a2.961,2.961,0,0,1-1.75.438c-0.15-.437-0.3-0.876-0.44-1.313-1.83-3.023-.05-8.912-0.88-12.7-3.08-14.017-.7-31.626-3.51-45.55a16.148,16.148,0,0,0-4.82-.438c-2.21,4.034-.96,10.368-2.19,15.767-1.55,6.834-1.59,15.264-3.07,21.9v7.446a58.433,58.433,0,0,0-1.75,13.578,5.051,5.051,0,0,1-3.07.875c-0.14-.437-0.29-0.876-0.44-1.313-0.77-1.465.77-12.828,1.32-15.33,1.23-5.566.04-10.132,1.31-15.767a133.394,133.394,0,0,0,3.07-26.279c-7.34.054-14.69,2.806-21.04,4.38a11.248,11.248,0,0,0-.44,3.5c1.71,2.814.1,8.285,0.88,11.825,0.33,1.5,1.01,4.44,1.32,5.694v8.76c1.55,7.15,2.07,15.835,2.19,24.089a5.057,5.057,0,0,1-3.07.875c-0.15-.437-0.29-0.876-0.44-1.313-2.02-3.126-.36-8.42-1.31-12.7-2.65-11.909-1.95-26.431-4.39-38.542a13.268,13.268,0,0,0-7.45-1.752c-0.14.438-.29,0.876-0.44,1.314-2.63,4.378-.76,12.183-2.19,17.957-2.13,8.608-2.18,19.255-4.38,28.031-0.83,3.294.35,8.394-1.32,10.949-0.32.382-.55,0.494-0.87,0.876a1.5,1.5,0,0,1-.88-0.438c-1.16-.676-0.96-1.7-0.88-3.5,0.93-1.544-.04-4.411.44-6.569,0.54-2.4,1.22-5.484,1.75-7.884v-5.256c1.25-5.283,1.84-12.991,3.07-18.4q0.225-4.816.44-9.636a26.869,26.869,0,0,0,1.32-7.445h-0.88c-2.31-1.456-5.72.455-8.33,0-3.83-.67-8.29-0.07-13.59,0a7.791,7.791,0,0,1-1.31,1.752c2.18,12.347.45,27.605,3.07,39.418v11.388c0.19,5.518.63,12.9,1.75,17.957,1.27,5.727-.25,11.932.88,17.081l0.87,18.833c0.01,3.71-.68,7.561,3.07,7.884a3.8,3.8,0,0,1,2.19-.438c0.15,0.438.3,0.876,0.44,1.314,0.53,1.527-.91,7.841-0.44,10.511l8.77,0.876v-0.438h0.44c0.64-6.084,2.61-13,3.94-19.271h0.88c1.01-.675,3.55-0.49,5.26-0.438v0.438h0.44c0.74,25.007.52,55.62,0,81.465a4.6,4.6,0,0,1-2.63.876c-4.51,2.868-22.74,1.684-28.05.438h-4.83c-19.32-5.271-31.47-14.374-38.57-31.973h-0.44v0.438a3.781,3.781,0,0,0-.43,2.19c0.56,0.867.02,2.2,0.43,3.5,0.12,0.369,1.2,1.383,1.32,1.752,1.68,5.288-1.97,8.747-3.07,12.7-1.49,5.38-.8,11.317-0.88,17.52-4.31,1.444-11.92.474-17.09,0.437v-0.437h-0.44c-0.81-7.349-.44-16.462-0.44-24.527V261.913c0-5.493-.44-13.008,0-17.081h0.44v-0.438a1.5,1.5,0,0,1,.88.438c3.45,0.976,4.45,3.73,8.76,3.941V247.9c1.69-2.727.44-17.871,0.44-22.338q0.225-33.939.44-67.887c-1.36-3.793-8.86-2.906-10.52-6.569a5.827,5.827,0,0,1-.44-3.066,4.589,4.589,0,0,1,2.63-.876c1.56,1.524,4.54,3.539,7.02,3.942,0.73-1.359.91-2.841,0.87-5.256,0.99-1.547,1.16-14.789.88-16.205-2.56-1.607-4.88-4.19-7.89-5.256-0.86,1.247-1.32,1.32-3.51,1.314-0.31-6.16,0-15.643,0-23.213h0.88c1.18-.629,2.09.214,3.94,0.438,1.84-2.461,6.08-2.859,7.46-5.694,1.1-1.565-.56-19.633-1.32-21.9a1.542,1.542,0,0,0-.88.438c-1.49,1.608-5.77,10.417-6.57,12.7-0.98,2.805-.02,5.517-0.44,7.884a7.993,7.993,0,0,1-2.63.438c-1.64-4.893-.47-13.49-0.44-19.271,1.37-1.943,5.73-10.458,6.14-12.7-7.71-4.637-6.4-7.006-6.14-18.833h0.88a2.967,2.967,0,0,1,1.75-.438c8.16,8.481,21.7,9.188,35.07,12.7l25.86-.438c1.67,0.414,3.91,1.765,5.26,2.19h5.7c6.92,0,13.92-1.2,20.16,0a7.064,7.064,0,0,1,.44,2.19c0.96,2.066.04,10.29,0,14.015-0.29.146-.59,0.292-0.88,0.438-2.27,1.6-9.44.333-10.96,2.628-0.52,1.637,1.57,5.2,2.19,7.008,1.89,5.51,3.59,10.743,5.26,15.768,0.96,2.853.56,5.322,1.76,7.883,0.58,1.234,2.6,2.179,3.07,3.5q-0.225,6.351-.44,12.7c0,5.409,1.08,10.311,0,14.891-1.6,6.766-3.62,14.6-3.95,21.023h0.44v0.438a51.673,51.673,0,0,0,6.14.438,5.749,5.749,0,0,0,.87-3.5c-0.74-1.279-.92-12.525-0.43-14.891l2.19-.438c0.73,1.359.92,2.841,0.87,5.256,1.73,2.8.7,8.665,1.76,11.825,7.71,0.658,13.2-1.122,18.85-3.066,2.25-.775,3.8.064,4.82-1.752,1.68-3-.58-9.2,1.31-11.825,1.61-1.046,6.33-.5,8.77-0.438,0.34,0.3.98,0.574,1.31,0.876,0.75,1.233.11,4.472,0.88,5.694a2.976,2.976,0,0,0,1.75.438c1.45-1.434,2.24-.732,4.39-1.752,2.47-1.179,5.18-4.306,7.89-5.256l7.01,0.438c10.28-2,23.92-.439,35.06-0.438,5.89,0,14.6.938,18.41-.438,1.62-14.26.44-30.95,0.44-45.988V11.826c4.74-2.417,20.3-.876,27.18-0.876h66.62c0.69,0.8.39,0.611,1.76,0.876V366.591C1492.03,368.9,1479.06,367.466,1469.42,367.466Zm-203.38-52.119c1.08,0.636,4.34.069,6.58,0v-0.438h0.44c0.23-3.552,1.18-7.4,1.31-11.388-1.57-.841-3.86-0.928-6.57-0.876-0.84-.776-1.38-0.83-3.07-0.876-1.18,3.05-2.12,9.475-2.19,13.14A11.005,11.005,0,0,0,1266.04,315.347Zm-33.75-5.694c3.22,2.026,8.51,1.448,12.71,2.628,3.82,1.07,8.24,2.933,12.72,3.066a16.116,16.116,0,0,0,.43-4.818c-1.79-3.118,1.42-5.728-2.19-8.322-1.58-1.18-19.4-4.571-22.35-4.818-1.64,3.013-2.44,7.3-2.63,11.826C1231.42,309.361,1231.85,309.507,1232.29,309.653Zm-6.57-25.4c0.63,2.623-.4,4.892.88,6.57a2.223,2.223,0,0,0,1.31.438c0.15-.292.29-0.584,0.44-0.876,1.71-2.363.07-5.171,0.87-8.76,1.95-8.7,1.15-20.109,3.07-28.907,0.85-3.863-.91-8.652.88-11.387a4.735,4.735,0,0,1,2.63-.438v0.876c0.53,1.009-.4,11.352-0.88,13.577v7.446c-1.28,5.626-.38,12.619-1.75,18.833-0.71,3.192-1.36,7.918-.88,10.95h0.88c1.77,1.091,4.19.215,6.57,0.876,5.33,1.471,12.26,3.353,18.41,3.941a9.262,9.262,0,0,0,.44-3.065c-1.22-2.025.16-6.033-.44-8.76-1.16-5.338-.57-12.077-1.75-17.519V260.6c-2.78-12.671-.74-27.93-3.51-40.732v-9.636c-1.04-4.822-.76-10.783-1.75-15.329V184.828a64.448,64.448,0,0,1-1.31-13.577c-1.8-.615-4.98-0.471-7.46-0.438v0.438h-0.43a55.189,55.189,0,0,1-1.32,11.387q-0.21,7.884-.44,15.768c-0.77,3.412-.96,8.628-1.75,12.263v8.76c-1.33,5.449-1.69,12-1.75,18.833a9.484,9.484,0,0,1-3.07.438,9.268,9.268,0,0,1-.44-3.066c1.98-3.23.26-15.715,1.31-20.585,0.84-3.824.93-9.316,1.76-13.14v-9.2c1.33-6.042,2.54-16.254,1.31-22.775-7.25-1.658-14.01-3.172-21.91-4.818-1.5,3.087.02,10.869,0.87,14.453q0.225,6.132.44,12.264c0.7,3.023.01,7.523,0.88,11.387,3.96,17.695,1.69,39.89,5.7,57.814C1225.2,268.536,1224.02,277.136,1225.72,284.25Zm21.48-143.658a3.832,3.832,0,0,0-2.2-.438c-1.71,4.914-1.65,13.25-1.75,19.271,1.36,0.73,2.84.918,5.26,0.876a5.071,5.071,0,0,0,.88-3.066C1246.79,153.4,1249.83,144.5,1247.2,140.592Zm-35.07-8.322q1.32,12.482,2.63,24.965l24.11,3.5c0.85-7.363,1.47-18.689.44-24.527-2.56-1.118-5.94-1.62-8.33-3.066-2.25-1.359-2.84-3.377-6.14-3.941-1.25,1.861-3.3,2.4-4.82,3.941-3.54.019-4.55-1-7.45-1.314v0.438h-0.44Zm-2.19,168.623c3.58,2.068,7.31,5.756,12.27,6.132,0.02-5.106,1.67-9.558.88-14.015-4.41-1.9-9.17-4.849-14.03-5.694a2.717,2.717,0,0,1-.87.876C1208.89,291.776,1209.18,297.193,1209.94,300.893Zm-5.26-23.213c3.62,2.2,12.08,7.608,16.22,8.322a7.064,7.064,0,0,0,.44-2.19c-1.93-2.841.01-8.2-.88-12.263-0.79-3.631-1-8.437-1.75-11.826V251.4c-3.09-13.573-1.83-29.682-4.83-43.36q-0.21-7.006-.43-14.015c-0.39-1.74-.93-4.784-1.32-6.57v-8.322a64.594,64.594,0,0,1-1.75-14.015,2.67,2.67,0,0,1-.88-0.876h-1.31c-2,5.626-1.32,17.885-1.32,25.4v8.322c-0.78,3.56.46,9.034-.44,13.139-1.11,5.1-.44,12.523-0.44,18.4v10.074c-1.69,6.96-.97,15.684-0.87,23.213C1205.19,268.394,1203.74,272.645,1204.68,277.68Zm5.7-130.08c-1.47-2.442-.97-9.063-2.19-11.826h-1.32c-1.39,3.2-1.72,12.09-1.75,16.206h0.87c0.74,0.5,2.15.466,3.51,0.438A8.887,8.887,0,0,0,1210.38,147.6Zm14.02-75.333c-2.35-1.6-5.32-1.191-8.32-2.19-4-1.326-8.22-3.527-13.15-3.942,0,6,1.85,10.5,3.06,14.891,1.24,4.436.5,12.18,2.63,15.329a2.255,2.255,0,0,0,1.32.438c2.8-5.949,7.3-11.172,10.96-16.643,1.6-2.4,4.34-3.855,4.82-7.446Zm2.63,9.636c-2,3.7-3.52,7.533-5.69,11.388-2.1,3.728-5.77,6.807-6.14,12.264,2.82,2.858,5.82,12.892,10.08,13.139,3.11-2.756,15.01-5.763,15.78-9.636-2.11-1.769-2.27-5.216-3.51-7.883-0.53-1.164-2.01-2.422-2.63-3.5l-0.87-3.942c-0.69-1.571-2.26-3.736-3.07-5.256C1229.74,86.168,1229.63,82.873,1227.03,81.9Zm38.14-6.132h-0.44c-1.07-1.208-3.82-.968-6.14-0.876-1.43-.882-4.09,0-6.13-0.438-6.07-1.3-13.96-1.591-20.61-1.752,0.14,3.141,2,5.692,3.07,7.884,1.35,2.737,1.02,5.52,2.19,8.322,0.72,1.719,2.45,3.977,3.07,5.694,0.15,1.168.3,2.336,0.44,3.5,0.68,1.634,2.38,4.113,3.07,5.694,1.11,2.572.7,4.927,2.19,7.007a2.246,2.246,0,0,0,1.32.438c3.87-8.934,8.72-16.889,12.71-25.841,1.34-3.013,3.7-5.834,4.82-9.2h0.44V75.771Zm2.63,8.76h-1.76c-2.15,9.809-12.33,19.069-13.58,28.907,2.23,2.083,10.43,11.358,12.71,11.826,3.06-4.6,11.99-10.265,12.27-16.644C1273.36,102.916,1270.71,91.52,1267.8,84.53Zm13.58,55.186v-0.438h-7.01c-2.78-.9-4.45-3.714-7.45-4.38-3.18,4.987-9.23,3.088-14.9,3.5v9.636c0.51,0.833,1.41,11.621,1.75,13.139,3.87,0.843,21.77,4.5,24.11,0,1.43-2.1,3.45-17.943,3.94-21.461h-0.44Zm-22.33,17.125a6.133,6.133,0,0,0-1.01-1.342,85.912,85.912,0,0,0-.67-11.4h0.33v-0.335l7.39-.671c0.82-.351,1.13-1.9,3.02-1.341,2.16,0.635,4.02,2.416,7.04,2.683,0.06,2.1-1.06,11.129-1.67,12.071C1270.16,159.625,1263.92,156.989,1259.05,156.841Zm5.09-39.456a36.768,36.768,0,0,0-5.83-5.821c0.06-5.8,5.71-10.924,7.2-16.1h1.37c1.87,4.111,4.79,8.892,5.14,14.04C1269.81,111.888,1267.92,116.781,1264.14,117.385ZM1247,98.605c-2.2-3.918-3.19-8.237-4.78-12.838-0.67-1.93-2.34-3.346-1.19-5.672a83.246,83.246,0,0,0,14.64,1.194,3.107,3.107,0,0,1,.59,1.791c-1.96,1.793-4.69,8.954-6.27,11.643C1249.05,96.319,1249.11,98.17,1247,98.605Zm-13.04,8.586c-2.47,1.405-4.92,3.492-8.47,3.629-1.35-2.635-3.83-4.437-3.94-8.165,1.72-1.746,4.05-7.043,5.45-9.374h1.21c1.74,4.382,5.04,8.554,6.05,13.305A1.148,1.148,0,0,0,1233.96,107.191ZM1210.6,86.584V86.218h-0.37c-0.33-4.445-3.14-10.153-1.83-14.255,4.09,0.028,7.26,2.048,10.97,2.924a1.279,1.279,0,0,0,.37.731C1219.13,78.195,1213.37,86.445,1210.6,86.584Zm-1.38,148.281c0-4.162-.75-10.55.75-13.448h1.5v0.374h0.37a108.42,108.42,0,0,0,2.24,20.172v6.351c1.02,4.63.92,10.739,1.87,14.942v8.592a32.9,32.9,0,0,1,1.12,7.845,8.034,8.034,0,0,1-2.61.373c-1.59-1.526-4.73-1.91-5.61-4.109-1.24-1.97,0-9.945,0-13.074Q1209.03,248.875,1209.22,234.865Zm4.93,59.068a37.265,37.265,0,0,1,3.67,1.127,5.106,5.106,0,0,1,.84,1.407c0.41,0.678.06,2.081,0,3.379a3.1,3.1,0,0,0-.84.563,10.855,10.855,0,0,1-4.23-2.534c-0.07-1.506-.02-1.891,0-3.66A0.967,0.967,0,0,0,1214.15,293.933Zm11.38-157.284a91.132,91.132,0,0,1,8.09,4.348v10.87a3.6,3.6,0,0,0-.63,1.553,4.794,4.794,0,0,1-1.55.31c-2.13-1.3-8.18-1.188-10.88-1.863a5.385,5.385,0,0,0-.93-1.242c0.67-3.542-.87-7.3-0.93-11.492C1221.01,138.017,1223.76,138.184,1225.53,136.649ZM1233.59,172c0.53,0.935.04,3.588,0,5.483a81.075,81.075,0,0,1-1.46,13.892v5.484c-0.69,3.1-.78,7.5-1.46,10.6v6.581a48.841,48.841,0,0,0-1.1,8.774v7.311a51.045,51.045,0,0,0-1.1,11.333,3.8,3.8,0,0,1-2.19.731,16.449,16.449,0,0,1-.37-4.753c-0.83-1.362.05-3.954-.37-5.849-0.27-1.252-.84-3.705-1.09-4.752v-7.677c-1.77-7.981-1.16-18.147-2.93-26.322v-6.58c-0.88-4.065-2.4-13.895-1.1-17.913C1223.67,168.274,1232.81,170.064,1233.59,172Zm3.58,96.891c0.42-1.814.75-4.842,1.19-6.689v-8.656c3.68-15.416,1.03-33.27,4.72-48.791V196.1c1.06-4.431.45-11.415,1.97-15.739h1.57a16.037,16.037,0,0,1,.4,4.722c1.15,1.91-.17,5.709.39,8.262,1.42,6.463.02,15.051,1.58,22.035,1.79,8.054.55,16.208,2.36,24.395v6.3c1.02,4.667.54,10.649,1.58,15.345V268.5c1.02,4.691,1.47,13.281,1.57,18.1-0.39.131-.79,0.262-1.18,0.393-1.92,1.226-12.93-2.049-16.15-2.361-0.75-1.415-.83-3.463-0.78-5.9C1237.88,276.245,1236.43,272.159,1237.17,268.894Zm1.91,33.746c2.44,0.731,10.95,1.471,11.83,3.172,0.41,0.62.32,2.107,0.29,3.171l-0.87.289c-1.04.571-9.77-1.846-11.83-2.307a3.081,3.081,0,0,1-.58-1.73,4.463,4.463,0,0,1,.29-2.018A3.256,3.256,0,0,0,1239.08,302.64Zm31.35,2.633a21.892,21.892,0,0,1,.44,6.132,6.762,6.762,0,0,1-3.95.876,1.588,1.588,0,0,0-.88-0.438v-2.628l1.32-3.942h3.07Zm43.83-150.666a45.024,45.024,0,0,1-17.53,4.38,6.611,6.611,0,0,1-.88-3.942c-1.4-2.128-.95-8.1-0.44-10.511a1.509,1.509,0,0,0,.88-0.438c5.93-.048,13.22-0.578,18.41.438v7.008A5.821,5.821,0,0,0,1314.26,154.607Zm-29.24-57.289a41.865,41.865,0,0,1-4.28-12.824,14.157,14.157,0,0,0,1.84-.916h3.36a15.993,15.993,0,0,1,.3,4.58q0.165,4.427.31,8.855h-0.61A1.571,1.571,0,0,1,1285.02,97.318Zm-0.13-56.148c-3.08,2.462-15.51,1.977-20.16.876-1.93-.456-5.17-0.895-7.01-1.314h-6.58c-11.29-3.073-22.91-3.742-33.31-7.008-4.96-1.555-12.81-2.77-14.47-7.446a4.621,4.621,0,0,1-.87-2.628c1.67-2.018,2.67-4.645,4.82-6.132,3.57-2.467,8.78-3.55,11.83-6.57h65.75c2.57,4.97.92,22.53,0.88,29.783C1285.48,40.878,1285.18,41.024,1284.89,41.17Zm-94.24-23.5c-0.1-2.762-.33-4.764.88-6.278,1.68-1.093,6.67-.5,9.2-0.438,0.25,0.7.36-.553,0.44,0.584a31.078,31.078,0,0,0-8.33,6.132h-2.19ZM1214.18,38.4c17.69,6.525,48.12,8.382,71.15,7.884,0.91,2.7.47,4.295,0.44,7.738-4.69,2.417-20.76.923-27.62,0.876-4.68-3.244-16.66-1.311-24.54-1.314-13.6-.005-25.31-3.427-33.75-8.76-3.15-1.985-7.82-3.387-8.33-7.884-1.59-1.942-1.48-9.554,0-11.533,1.27-3.493,2.92-3.9,5.12-6.716h1.75a6.63,6.63,0,0,1,.44,1.752c-1.1,1.086-2.79,4.909-2.19,6.132C1198.64,34.8,1206.69,35.635,1214.18,38.4Zm-64.73,177.529c-0.44,1.737-1.31,4.758-1.75,6.57v5.255c-0.84,3.049-2.22,8.049-3.07,10.95-0.15,2.044-.29,4.088-0.44,6.132-1.91,5.438-4.56,11.758-6.57,17.081-22.79,60.206-66.31,95.463-130.62,114.313-5.71,1.673-10.593.793-16.658,2.19-12.881,2.967-28.689,2.606-44.709,2.628V379.73c-12.289.309-23.66-2.5-32.873-5.256h-3.507A183.4,183.4,0,0,1,872,359.145c-4.991-2.81-9.638-4.527-14.464-7.446-3.542-2.141-6.722-5.574-10.082-7.884-24.319-16.719-45.306-43.047-58.3-70.953-4.209-9.042-6.65-19.4-10.081-28.906q-0.219-2.409-.439-4.818c-3.664-11.5-7.274-40.079-3.944-54.748l0.438-12.7c2.983-11,3.836-22.625,7.013-33.287,12.143-40.75,44.025-78.979,77.582-98.546,4.868-2.838,10.474-7.713,15.78-10.074,11.893-5.291,24.763-9.57,37.695-13.577l6.136-.438c3.507-.9,9.113-2.1,12.712-3.066h6.574c7.632-1.725,17.08-1.749,26.738-1.752h8.766c13.658,3.115,27.986,2.746,40.766,6.57,55.73,16.676,96.05,52.385,119.22,101.612,6.4,13.6,9.32,29.034,13.59,44.674V169.5c0.41,1.551,1.35,4.954,1.75,6.57v8.321c1.29,5.967,1.35,17.692,0,23.651v7.884Zm-89.85,49.054v-3.5c-0.62-1.9-2.28-5.046-3.07-7.008-0.15-1.022-.29-2.044-0.44-3.066-0.26-.526-1.47-1.1-1.75-1.752-0.15-1.6-.3-3.212-0.44-4.817-1.02-3.2-3.67-4.2-3.95-8.322,2.28-2.517,1.79-6.435,3.07-10.074,5.09-14.429,6.54-37.767,1.75-53.871-1.17-3.952-.75-7.056-2.19-10.95-10.64-28.846-27.49-51.669-56.1-62.631-4.532-1.737-9.958-4-15.341-5.256-5.15-1.2-9.5-.164-14.9-1.314-2.22-.473-7.178-1.075-10.081-0.438-9,1.976-18.894,2-26.737,5.256-14.4,5.981-28.013,14.615-36.819,26.279l-3.068,2.628c-4.884,7.019-9.174,14.428-13.588,21.9-1.322,2.237-.944,5.657-3.068,7.007-3.071,1.86-8.405.4-12.273,1.314-5.029,1.192-10.93,2.047-15.78,3.066-2.088.439-3.6-.6-4.821-0.876-2.22-.5-3.72.525-5.26,0.876-1.812,5.563-5.867,6.557-10.081,9.636-1.713,1.251-2.777,3.539-4.383,4.818a34.219,34.219,0,0,0-4.384,3.5c-2.382,2.652-7.522,8.4-10.225,10.219-4.132,2.778-10.006,2.406-11.834,7.446-4.319,5.626,3.062,13.339,2.63,16.059-0.195,1.223-2.611,14.488-3.216,15.329-1.209,1.683-3.831.372-4.969,2.19-2.859,4.57-.692,12.109.148,16.06,4.89,2.926,3.827,2.029,10.228,1.752,0.044,2.739,1.282,2.376.877,3.357-0.816,4.2-6.328,10.761-4.383,17.666,2.418,8.587,13.775,14.326,20.744,18.541,2.071,1.252,2.375,2.578,4.531,3.8,1.066,0.6,6.219,8.119,7.451,9.635,2.384,2.936,6.774,3.665,7.013,8.76-1.258,1.141-2.014,3.687-2.191,5.986,2.389,1.608,2.4,6.028,3.068,9.2,1.752,0.788,3.7,2.258,5.7,2.628,2.98,0.553,4.993-2.014,6.575-2.628,2.809-1.09,5.588,1.721,6.866,2.19,1.741,0.64,2.694-.913,4.383,0,2.905,1.571,5.947,4.375,8.766,6.132,6.642,4.139,12.142,4.951,18.557,9.344,1.938,1.327,3.387,3.862,5.26,5.255a118.132,118.132,0,0,0,13.587,8.322c1.456,0.815,3.6,2.939,5.26,3.5,3.249,1.1,13.768.831,17.095,0,2.264-.566,5.677-3.086,9.643-1.752,1.7,0.571,2.18,2.871,3.653,3.5,2.628,1.128,2.762-1.075,4.093,1.314,1.389,2.758,2.34,6.62,6.571,9.635,2.353,1.926,8.714,1.721,10.519-.438,0.729-.87.789-2.475,1.754-3.066,1.992-1.22,3.042.222,3.945-2.189,0.949-1.349,1.937-5.193,3.359-6.132,2.864-1.738,6.083-1.57,9.79-2.482,4.314-1.061,9.739-3.315,14.465-3.5,4.327,4.689,12.788,8.241,19.728,10.074h7.89c7.21-2.3,12.75-9.2,14.46-17.082-0.15-2.189-.29-4.38-0.44-6.569h0.44V339c2.13,0.108,2.92.717,4.82,0,1.98-.748,8.19-7.537,8.77-9.636,0.63-2.291-1.16-3.5-1.32-6.132,4.53-4.512,7.42-11.969,9.21-19.271q0.21-5.912.44-11.825C1062.64,282.025,1062.46,275.335,1059.6,264.979Zm-12.72,35.914c-2.76,1.847-5.59,4.671-8.32,6.57l-3.07.438c-9.85,4.831-22.33,7-37.258,7.008l-16.218-.438c-6.3-1.708-14.016-1.562-20.6-3.5-8.389-2.474-18.046-5.38-25.861-8.322-4.231-1.592-8.205-1.7-12.273-3.5-16.394-7.256-35.044-15.492-49.53-24.965-8.457-5.53-16.477-12.315-24.545-18.395-3.015-2.271-5.2-5.522-8.328-7.883-1.489-1.125-2.329-2.9-3.507-4.38l-3.507-2.628c-5.075-6.648-10.909-12.945-15.341-20.147-2.707-4.4-2.992-13.58-9.643-14.016,0.775,27.128,18.681,39.134,32,53.872,3.14,3.476,12.539,13.9,16.656,15.329,0.817-1.179,1.042-1.252,3.068-1.314,6.2,8.805,15.182,13.527,24.546,19.272,20.137,12.354,42.857,21.253,68.377,28.468,1.5,0.425,14.017,1.854,15.341,1.314,0.679-.276,1.57-1.92,2.192-2.19h5.7c3.89,6.468,16.215,4.591,26.3,4.38,17.02-.356,30.27-8.365,40.77-15.767,3.12-2.2,7.65-8.944,11.39-9.636a1.581,1.581,0,0,0,.88.438v0.876c0.61,1.106-.15,1.932-0.44,3.066-0.95,3.764-.51,6.283-2.19,9.2-1.13,1.957-3.74,3.408-4.82,5.694s-0.9,5.755-3.95,6.131c-0.55-1.627-.22-2.213-2.19-2.628-0.85,1.236-3.88,3.6-4.7,4.354,0.91,2.625,3.67,2.081,3.9,5.195-1.08,1.057-1.31,1.976-3.25,2.273-1.04-1.065-2.25-1.43-2.6-3.247-0.44-.8.95-2.687,1.3-3.9h-0.65c-1.92-1.146-9.59,1.078-11.97,1.892-6.83,2.339-14.44,3.413-21.04,5.256h-3.944c-2.286.541-7.334,3.137-10.519,1.752-0.847-.368-0.924-1.326-2.192-1.752-2.386,3.509-10.436.638-14.464,1.314-0.643,1.485-2.068,2.773-2.63,3.942-1.205,2.5-.824,4.395-2.192,6.569-0.857,1.363-2.879,2.846-3.506,4.38-1.489,3.639.386,6.915-4.383,6.132-0.531-1.85-.014-3.031-2.192-3.5-1.135,1.891-2.115,3.468-5.26,3.5-1.322-1.069-3.515-.565-4.383-2.19-0.949-1.85.568-3.106,3.068-3.066,0.768,1.106.806,1.156,2.63,1.314v-8.76c1.088-3.235,3.523-5.232,3.945-9.635-3.915-.071-8.382-1.7-11.835-2.628l-8.328-.876a300.921,300.921,0,0,1-30.682-11.825c-6.288-2.9-12.324-3.992-17.971-7.446-5.186-3.172-17.946-12.976-24.107-13.578-1.109,2-1.806,5.029-3.069,7.008-1.746,2.737-5.029,2.034-5.259,6.57,1.14,1.662-.034,4.164-0.439,5.694a6.238,6.238,0,0,1-1.753.438,10.263,10.263,0,0,0-4.383-2.19c-2.4,3.315-4.56,4.159-9.205,3.066L840,317.975c-1.174-1.672-.587-3.408-0.438-5.694a6.874,6.874,0,0,1,2.191-.438c0.957,1.126,4.1,3.256,5.26,2.628a7.486,7.486,0,0,0,3.068-1.314,7.737,7.737,0,0,0,2.192-4.818h-0.439V307.9a1.5,1.5,0,0,0-.876.438c-2.111.671-2.65,1.887-5.26,2.19-1.384-1.452-1.813-1.686-1.753-4.818,5.2-3.367,7.311-9.451,7.451-17.957-7.44-4.949-12.25-11.325-17.533-18.4-1.418-1.9-3.849-3.375-5.259-5.256-0.608-.81-0.626-1.915-1.315-2.628a112.023,112.023,0,0,1-9.205-10.512l-3.507-3.065c-2.164-3.191-2.732-10.019-6.136-11.826v0.438c-1.747,1.375-1.006,3.142-3.945,3.5-1.262-1.42-2.05-2.153-4.821-2.19-1.356,2.949-.175,5.331-4.822,5.256-0.959-.764-1.574-0.529-2.191-1.752-0.97-1.374-1.284-3.485-1.315-5.694,3.011,0.028,3.689.753,6.574,0.876,1.365-1.632,3.553-1.7,4.384-3.942a6.256,6.256,0,0,0-1.754-.438c-0.873.586-2.852,0.484-4.383,0.438a1.5,1.5,0,0,0-.438-0.876c0.391-1.453,1.358-1.713,1.753-2.628v-3.5c0.559-2.269,1.282-5.318,2.192-7.883,1-2.825,2.873-4.326,3.068-8.322-2.342-1.53-5.712-7.839-3.507-10.949,0.965-3.671,5.4-6.162,10.082-6.132v0.876c0.867,1.459-.537,6.44-0.877,8.759a4.581,4.581,0,0,0,2.63.876c1.039-.653,2.081-0.4,3.506-0.438,0.581-9.358,8.47-14.734,13.441-21.315,4.479-5.929,9.545-6.743,12.711-14.891,4.33-.192,6.153,2.088,9.205,2.19,1.476,0.049,3.53-1.8,4.821-2.19a59.156,59.156,0,0,1,17.1-2.19,12.674,12.674,0,0,1,.438,3.942c-2.991,4.067-3.85,7.14-5.112,12.993-3,13.932-.548,32.244,3.068,43.8v3.065c0.26,0.846,1.5,1.614,1.753,2.19,1.162,2.642.79,5.107,1.753,7.884,1.41,4.064,4.483,8.338,6.575,11.825q0.438,1.752.877,3.5c10.951,18.677,27.18,31.938,48.653,40.295,9.827,3.824,20.474,6.131,34.627,6.131h8.766c4.828-1.1,10.953-1.317,15.78-3.066,14.763-5.349,26.933-12.616,37.253-22.337a99.828,99.828,0,0,0,14.47-17.957c1.6-2.757-1.37-6.486,2.48-7.008a16.187,16.187,0,0,1,1.32,1.314c2.87,4.021,9.93,24.049,7.89,32.411-0.87,3.569-2.32,7.65-2.63,11.826a4.36,4.36,0,0,1,2.63.876c0.38,0.324,3.71.551,4.09,0.875a1.54,1.54,0,0,1-.44.876C1054.99,299.174,1048.91,299.542,1046.88,300.893ZM803.475,246a5.082,5.082,0,0,0,.876-1.314h1.754a6.582,6.582,0,0,1,.876,1.752c0.677,1.028.257,1.874,0,3.065h-2.63A5.779,5.779,0,0,1,803.475,246Zm1.606,10.073c4.4,7.389,11.117,13.593,16.217,20.585,1.819,2.493,4.942,3.454,5.26,7.446H826.12v0.438c-8.813-1.537-14.06-6.066-20.163-10.074-2.078-1.364-3.5-.913-4.383-3.5-3.543-4.622-1.63-10.958.877-14.892h2.63Zm13.149,12.7c-2.978-3.986-5.616-8.453-9.2-11.826a1.5,1.5,0,0,1,.438-0.876c0.514-1.748,1.134-1.585,2.192-2.628h1.753c1.406,2.716,3.986,3.863,5.7,6.132,3.694,4.9,8.365,9.155,11.834,14.015q0.22,0.876.439,1.752c2.436,2.763,7.083,4.986,7.451,9.636a12.686,12.686,0,0,1-3.945.438c-1.179-.925-3.113-0.855-4.383-1.752-1.655-1.169-2.708-4.043-3.945-5.694C824.155,274.764,820.625,271.979,818.23,268.775Zm14.612,20.877c1.524,0.585,4.775.107,7.451,0l2.192-3.066h2.192v0.876c3.334,4.75-2.4,13.589-6.575,13.577-3.041-3.376-8.623-4.746-8.767-10.949A11.016,11.016,0,0,1,832.842,289.652Zm34.185,16.205c6.608,0.072,11.086,5.582,16.218,7.884,0.559,6.407.929,12.7,1.315,21.023a6.915,6.915,0,0,1-2.192.438c-3.764-3.787-10.8-7.02-15.341-10.074-1.8-1.21-4.822-1.843-5.7-3.942-1.348-1.5-.558-3.86-0.438-6.569C864.143,312.484,865.129,309.359,867.027,305.857Zm33.021,17.957c4.818,2.171,9.088,3.23,14.027,5.256,3.672,1.507,8.283,4.084,12.272,5.256,4.821,1.415,14.788,1.288,14.9,7.008-3.518,1.8-5.282,4.636-10.519,4.817-2.331-2.5-8.528-3.026-12.273-4.379-6.58-2.379-14.345-6.194-21.04-8.76-2.061-.79-3.172-0.284-4.821-1.314-2.56-1.6-4.9-8.211-3.507-12.263C893.927,319.513,896.686,322.3,900.048,323.814Zm-0.438,13.578H901.8c1.76,0.663,4.337,2.329,6.136,3.066l3.507,0.438c1.926,0.7,4.827,2.72,6.574,3.5,3.486,1.563,9.92,1.968,12.712,3.942,0.382,0.325.494,0.552,0.876,0.876a1.493,1.493,0,0,1-.438.876c-0.92,2.686-11.075,5.383-15.779,3.5-5.518-2.2-11.836-5.208-16.218-8.76-0.906-.734-1.311-2.315-2.192-3.065-2.285-1.947-5.575-3.695-3.945-7.008C896.29,334.862,897.575,336.452,899.61,337.392Zm50.022,1.857c1.479,0.487,1.518.786,1.551,2.712-1.552,1.687-.994,4.11-2.327,6.2-0.409.643-4.167,3.707-5.04,4.649H941.1a6.988,6.988,0,0,1-1.163-1.937c3.383-3.411,3.651-7.1,5.428-12.4C946.811,338.475,948.73,338.613,949.632,339.249Zm11.781,24.276c1.169,1.524-1.485,3.944-3.945,3.941-1.158.744-2.326,0.167-3.945,0l-0.438-1.313a4.7,4.7,0,0,1-.877-3.066,24.914,24.914,0,0,0,2.192-3.5C956.185,359.855,960.78,361.933,961.413,363.525Zm14.4-22.3c2.22,0.676,6.539-.109,8.256,1.125a3.25,3.25,0,0,1,.375,1.875,5.137,5.137,0,0,0-1.5,3,15.726,15.726,0,0,1,3.377,3,2.528,2.528,0,0,1,.376,1.5c-3.471,1.9-12.889,2.708-17.263,1.875v-1.875c1.886-2.522,2.463-6.2,4.128-9C973.982,342.022,975.194,341.753,975.815,341.225Zm18.1,0.352c6.221-.271,22.651-3.057,26.2-5.738a1.773,1.773,0,0,1,1.08.359c0.73,1.008.47,1.124,0.35,2.51-1.43.976-2.49,2.7-3.94,3.587-3.52,2.147-9.59,3.161-14.72,3.227-3.591.047-7.769,0.64-8.971-1.793a3.1,3.1,0,0,1-.359-1.793h0.359v-0.359Zm11.481,6.1c2.4-1.474,6.18-.777,8.98-1.793,5.02-1.823,8.54-4.614,10.4-9.683h1.44c1.68,3.312,5.89,14.816,0,17.214-6.09,5.662-25.48,1.715-26.559-5.379C1001.05,347.559,1003.47,347.648,1005.4,347.674ZM693.022,318.851c-1.607,1.459,4.816,2.92,3.209,4.379-10.489,13.861-37.211,27.94-55.667,34.163l-4.821.438c-2.365.815-6.768,2.4-9.205,3.066h-5.26c-4.652,1.239-11.528,1.939-16.656,3.066-5.18,1.137-10.991-.157-15.779.876H567.8c-6.964,1.5-16.767.437-24.546,0.438H494.605c-1.357-2.713-.746-10.874-5.26-11.388-1.635,2.059-4.464,3.246-7.452,3.942-1.586.369-3.327-.22-4.383,0.438a5.786,5.786,0,0,0-.438,3.066c0.957,1.194.73,1.975,0.438,3.5-5.059,1.666-13.775.438-19.724,0.438H414.392a1.57,1.57,0,0,0-.876-0.438c-0.905-2.731-.438-7.479-0.438-10.95v-25.4a11,11,0,0,1,3.506-.438c1.876,2.208,14.7,4.734,20.163,3.5,10.394-2.34,17.674-5.331,24.107-11.388,2.2-2.071,5.465-2.5,6.575-5.693h-1.315c-2.774,2.971-8.5,5.708-12.711,7.007-4.123,1.273-13.6.4-14.321-1.022v-2.627c3.2-2.036,8.528-7.7,9.643-11.68H443.76c-1.9,2.943-10.437,9.9-14.026,10.95-2.641.771-4.755-.681-7.013-0.876-1.158-1.429-2.786-1.564-3.507-3.5-0.385-.567,2.82,2.131,2.774,1.022,12.668-8.106,24.194-25.842,19.58-47.01H441.13v-0.438h-0.438c0.26,13.776-8.765,29.949-16.657,35.914-3.089,2.335-5,5.662-10.519,5.694-1.828-5.563-.439-20.955-0.438-28.031V9.636a4.8,4.8,0,0,0,1.314-.876C453.052,9.56,497.171,9.2,538,9.2c34.267,0,67.215.03,92.923,8.322h3.069c2.01,0.681,5.123,2.63,7.013,3.5,3.664,1.694,7.255,1.9,10.519,3.942,1.91,1.193,4.107,3.314,6.137,4.38,1.128,0.592,2.074.23,3.068,0.876,1.7,1.1,3.172,3.242,4.821,4.38,3.056,2.107,9.273,5.137,10.082,9.2-20.83,12.023-39.072,27.523-57.858,41.608-5.069,3.8-9.323,8.819-14.465,12.7-2.6,1.966-3.843,5.593-7.889,6.132C584.313,85.177,545.8,90.363,516.959,90.662c-1.4,4.238-.439,11.567-0.439,16.643v35.477a1.576,1.576,0,0,1,.439.876h0.876c2.065,1.288,11.978.438,15.342,0.438,7.923,0,10.479-.192,17.683-0.438,2.032-.07,4.167,2.175,6.575,1.314,2.325-.832,3.558-1.7,7.451-1.752a6.869,6.869,0,0,1,.439,2.19c-7.933,7.734-14.051,17.621-20.163,27.155-1.638,2.555-4.418,4.871-6.137,7.445-2.1,3.149-.262,13.566-4.1,14.016-0.263-.756-6.814-1.381-6.862-2.628,0.9-1.305,4.152-15,4.383-17.081h5.985v0.438c-3.778,4.6-12.35,10.155-15.628,15.329a268.814,268.814,0,0,0-19.725,36.79c-1.721,3.988-3.941,7.889-5.55,12.264-0.592,1.608-2.154,3.546-2.63,5.694,0.411,1.243-.915,1.391.585,1.752,1.224-2.341,10.21-5.528,13.728-5.694a6.2,6.2,0,0,1,.439,1.752c-2.741,3.652-2.367,7.713-4.384,11.825-1.99,4.06-4.491,9.2-6.136,13.578-1.353,3.6-1.934,11.042-6.136,11.387v-0.876c-1.191-2.033.835-6.1,0-8.759H492.56c0,0.146,1.606.292,1.606,0.438-6.619,4.849-4.324,16.872.586,17.811,1.392-6,8.226-13.482,10.225-18.687v-2.19c1.672-4.533,4.587-8.05,6.575-12.41,1.466-3.215,2.037-10.05,6.136-10.511,1.1,3.307-1.168,7.447-1.168,11.533v27.593a6.718,6.718,0,0,0,3.945.876c1.479,0.893,3.272.075,6.14,0a2.68,2.68,0,0,0,.877.876,1.511,1.511,0,0,1-.438.876c-0.985,2.711-4.844,5.693-7.013,7.446q-0.659,1.1-1.315,2.19c-3.831,3.774-5.581,9.5-15.345,7.007-5.247-1.339-10-4.96-15.779-5.256,0,0.292-1.606,5.4-1.606,5.694,0.146,0,1.9-4.818,2.044-4.818,2.926,2.608,9.289,10.479,13.3,11.826,2.581,0.868,3.369-.654,4.383,1.752,1.78,2.721.975,4.577-.147,6.57-4.357,7.732-9.871,19.415-10.958,29.782h0.876v0.438c0.443,0.434.434-.431,0.439-0.438,1.964-1.859,4.2-12.87,5.7-16.2,1.077-2.4,3.678-5.187,4.821-7.446,4.291-8.48,8.089-16.028,13.588-23.213,2.095-2.737,5.857-4.977,8.328-7.445,3.756-3.754,6.069-9.72,13.588-9.636,1.635,1.013,4.886,0,7.451,0H568.68c21.027,0,40.738-4.933,47.339-19.271l0.438-3.5c1.819-4.531,3.262-12.459,1.315-18.4-2.5-7.612-9.01-14.75-16.218-17.52-3.288-1.263-8.179-1.338-10.958-3.065a4.74,4.74,0,0,1-.438-2.628c5.147-3.473,10.226-11.147,14.026-16.206,2.4-3.2,6.355-5.612,8.766-8.759,2.048-2.673,3.7-5.16,5.7-7.884l6.137-5.694c10.665-14.174,23.165-26.5,33.75-40.732,3.85-5.177,9.276-9.7,13.15-14.891,6.378-8.553,13.853-16.078,20.163-24.527,2.027-2.716,3.722-7.429,7.013-8.76a3.793,3.793,0,0,1,2.191-.438v0.876c2.553,4.018-.152,23.926-1.315,27.593-5.367,16.931-11.539,29.939-24.107,39.418-1.879,1.417-3.288,3.911-5.26,5.256-4.638,3.164-10.019,5.366-14.465,8.76a1.505,1.505,0,0,0,.439.876c2.075,1.292,5.711,1.26,8.328,2.19,0.707,0.251,1.5,1.459,2.191,1.751,4.573,1.923,9,3.188,13.15,5.694A110.007,110.007,0,0,1,707.189,207.6c20.685,24.393,18.066,73.962.876,99.86C705.537,311.273,695.722,315.213,693.022,318.851ZM543.409,158.987c0.686,0.545.223,0.281,0.876,0,2.358-.823,4.807-4.281,5.26-7.007l-2.192.438C546.6,153.548,542.465,158.086,543.409,158.987Zm-44.421,99.422c0.756-1.3,1.359-2.3,0-3.5a17.249,17.249,0,0,0-.439,3.5h0.439ZM476.2,350.385a6.6,6.6,0,0,0,1.754.876c1.845,1.534,5.951,1.441,7.889,0a7,7,0,0,0,4.383-5.694l-1.315-.438c-3.546,3.856-7.063,3.175-12.711,3.5v1.752Zm-25.985-50.7h2.882c0.886-2.694,3.81-6.082,5.763-7.919v-3.6h-2.161L450.21,296.8v2.88Zm27.3-33.825c-5.736-15.231-15.979-24.356-37.257-24.089-1.883,1.255-3.938.527-6.575,1.314-4.822,1.438-14.8,12.874-15.341,18.4h0.877c5.18-5.525,20.948-15,33.75-10.95,7.543,2.389,14.576,7.43,18.41,13.578a53.945,53.945,0,0,1,5.26,11.825c1.687,5.46.084,12.03,1.753,17.082h0.438v-0.438C484.39,284.429,479.227,270.413,477.51,265.855Zm12.273,46.864h-0.877c-0.9,1.784-1.969,2.365-4.383,2.628-0.884-.992-2.444-1.864-3.068-3.066-0.785-1.514.092-2.607-1.315-3.5-0.426,1.28,0,3.5-.438,5.256-1.013,4.07-2.632,10.015-3.068,14.453-0.239,2.423-.55,7.6.438,9.2,0.828,2.63,3,3.972,6.575,3.942a3.785,3.785,0,0,1,2.191-.438c0.725-2,2.719-2.672,3.507-4.38C492.035,330.974,489.9,319.41,489.783,312.719Zm108.7-198.844a6.162,6.162,0,0,1-.438-1.752,26.677,26.677,0,0,0,3.068-3.066,2.121,2.121,0,0,1,1.315.438,2.95,2.95,0,0,1,.438,1.752C601.385,112.332,600.77,113.464,598.486,113.875Zm74.808-.146c-3.19,4.366-8.194,7.887-11.4,12.264-12.6,17.223-28.359,31.607-41.2,48.616-2.462,3.26-6.31,5.933-8.766,9.2-3.77,5.012-7.636,9.406-11.4,14.454-2.139,2.871-5.746,5.016-7.89,7.883-2.627,3.513-6.062,9.919-10.081,11.826-2.479,1.542-8.818,3.212-12.568,3.212H527.04a8.035,8.035,0,0,1-.438-2.628c2.953-3.161,3.732-7.584,6.136-11.388,6.076-9.611,12.655-18.876,18.41-28.907,0.63-1.1,2.358-2.032,3.068-3.065,3.8-5.539,7.171-10.663,10.958-16.206,1.187-1.737,3.608-3.052,4.821-4.818,2.246-3.269,7.161-11.113,10.082-13.139,4.048-2.808,9.365-3.577,12.272-7.446,3.039-4.043,3.826-10.411,7.014-14.453l3.068-1.752a134.71,134.71,0,0,1,20.6-19.271c1.8-1.354,3.071-3.89,4.821-5.256,5.3-4.136,10.361-7.8,15.78-11.825,4.755-3.531,9.074-8.435,14.026-11.826,5.451-3.733,10.6-6.952,16.218-10.512,1.152-.731,2.365-2.416,3.506-3.066,2.267-1.292,4.251-1.476,5.7-3.5h2.192c5.926,10.264,11.468,16.321,11.691,32.265-3.082,2.38-4.7,6-7.014,9.2C684.929,100.518,678.5,106.61,673.294,113.729Zm-311.5,138.548c-4.945,11.376-9.436,23.093-15.779,33.287-22.8,36.645-56.931,63.195-101.251,78.4-10.245,3.514-21.538,4.445-32.436,7.007l-13.149.438c-3.87.834-10.267,1.284-14.027,0.438l-17.094-.438c-5.473-1.243-12.685-.545-17.971-2.19-3.277-1.019-8.582-2.55-11.835-3.5-2.916-.855-4.861-0.4-7.889-1.314-4.047-1.225-8.588-3.84-12.273-5.256-2.776-1.067-4.235-.692-7.013-1.752-6.251-2.386-13-6.6-18.41-10.074-5.952-3.824-11.909-6.467-17.533-10.511-26.147-18.8-46.4-44.88-60.05-76.209A277.769,277.769,0,0,1,3.251,226c-2.013-7.143-.8-14.506-2.63-21.9-1.287-5.187-1.349-14.8-.877-20.147V172.565c0.591-2.548,1.169-6.272,1.753-8.76v-6.132c0.415-1.524,1.344-4.456,1.753-6.131v-4.38c1.545-4.87,3.778-10.924,5.26-15.768,0.953-3.115.6-4.953,1.753-7.883,3.882-9.832,8.779-19.94,13.588-29.345,3.029-5.924,8.019-10.835,10.958-17.081H37c1.786,5.37.471,20.715,0.438,27.593C36.005,107,37,113.664,37,116.941v33.287c-1.011,4.718-.438,11.608-0.438,17.081v97.67c0,8.2-1,15.965-.438,24.089a6.337,6.337,0,0,0,1.4.672v1.344c1.743-.852,4.877-3.246,7.854-3.787l5.647,4.837a13.048,13.048,0,0,0,4.763-.707,39.987,39.987,0,0,0,8.058-1.717c2.512,5.02,7.062,3.566,9.533,7.241,0.975,1.451.152,2.837,0.877,4.818,0.48,1.313,2.1,2.362,3,3.576,0.185,0.925.406,1.8,0.659,2.635L78.2,311.4c0.28,0.952,1.007,1.884,1.315,3.066,2.349,1.375,5.59,3.514,8.328,4.38,3.83,1.21,7.538-.47,11.018-0.506a19.188,19.188,0,0,1,3.964.942c7.183,3.629,7.392,12.969,18.768,13.141a26.575,26.575,0,0,1,2.335-2.488,14.854,14.854,0,0,0,3.157-1.393c0.873-.538,1.629-1.538,2.634-1.9a3.508,3.508,0,0,1,2.049.146c0.446,0.086.87,0.174,1.289,0.263,1.564,1.615,3.069,1.379,4.826,1.627,1.447,0.735,2.824,1.56,4.244,2.325,1.191,1.586,1.558,3.506,4.45,4.05,0.842,0.441,2.732-.831,4.106-1.471a17.791,17.791,0,0,0,3.2-.2c1.338,0.407,2.477,1.133,4.086.357a3.727,3.727,0,0,0,1.36-1.117,2.916,2.916,0,0,0,.971-0.42c1.028-.172,2.724-3.095,3.366-3.951a21.986,21.986,0,0,1,2.508-2.571,38.421,38.421,0,0,1,3.629-1.577c1.223-.467,1.97-1.253,3.037-0.883,0.306,0.815.328,1.868,0.631,2.69a32.01,32.01,0,0,0,2.634,5.853,11.075,11.075,0,0,0,1.277,1.631,9.283,9.283,0,0,0,1.626,2.973l7.679,3.453c0.131,0.094.265,0.187,0.394,0.285,2,1.508,4.712,5.159,6.146,7.317,0.045,0.067.087,0.138,0.13,0.207,0.209,0.361.421,0.724,0.644,1.088a8.249,8.249,0,0,0,2.153,2.8,6.627,6.627,0,0,0,1.865.937l0.713,0.554c4.036,0.124,5.3-1.034,7.89-1.752,5.081-1.406,10.221-.038,11.835-4.818a11.248,11.248,0,0,0,1.385-3.42c1.577-2.45,2.911-5.168,5.044-7.074,0.437-.018.907-0.027,1.46-0.017a19.878,19.878,0,0,1,1.463-1.862l4.2-.255q-1.245-3.145-2.488-6.292c-0.646-1.948-.519-3.762-1.025-6a13.258,13.258,0,0,1,.147-5.415,17.9,17.9,0,0,1,1.055-2.769,9.234,9.234,0,0,0,1.47-2.372v-0.419a45.667,45.667,0,0,0,2.158-4.1c1.748-4,2.61-7.463,7.919-7.4a5.459,5.459,0,0,1,1.843,1.606,14.438,14.438,0,0,0,.656,2.863c-0.4,3.043-3.015,6.439,3.641,7.012l3.507-3.066c0.447-.627.276-1.611,0.792-2.105a14.429,14.429,0,0,0,1.434-.758c2.736-.82,5.058,1.365,5.225-3.707-0.006-.007-0.013-0.02-0.02-0.028a6.475,6.475,0,0,0,1.2-1.147,6.962,6.962,0,0,0-.732-2.048c-0.781-1.514-2.163-4.434-1.463-7.171,0.1-.386.215-0.753,0.339-1.11a3,3,0,0,0,1.294-2.766,28.915,28.915,0,0,1,1.733-2.563c0.742-1,1.82-1.825,2.341-3.073,0.536-1.281.771-4.267-.146-5.268,0.263-.988,1.555-1.265,2.342-1.756,0.139-.087.267-0.162,0.4-0.246,2.269-.546,5.247.336,6.3-1.73v-1.048c0.064-.015.111-0.035,0.176-0.049,1.535-.342,4.044.568,5.268-0.147h4.537c-1.367-1.944-4.744-2.893-6.147-4.829h-0.146v-0.146a3.09,3.09,0,0,0,.878-0.585c2,0.284,3.555,1.417,5.561,1.9,3.8,0.92,7.389-2.018,9.366-3.219a18,18,0,0,1,1.607-.847,8.19,8.19,0,0,0,3.446-1.106l1.489-1.674c1.794-1.131,3.573-2.293,5.3-3.5l0.223-.084c0.044-.051.079-0.11,0.121-0.162,0.727-.512,1.449-1.028,2.155-1.556a23.4,23.4,0,0,0,3.658-3.512,11.411,11.411,0,0,1,1.757-2.342c3.424-2.605,6.956-4.554,9.427-7.9a4.252,4.252,0,0,0,.853-0.732,8.519,8.519,0,0,0,.816-2.142c0.008-.018.018-0.035,0.026-0.054a35.278,35.278,0,0,0,1.516-5.485,3.5,3.5,0,0,1,1.587-1.517h41.2a14.418,14.418,0,0,1,.438,4.38C365.04,237.939,363.376,248.64,361.794,252.277ZM347.768,145.41L347.33,144.1c-0.023-.037-0.04-0.087-0.062-0.127q0.327-15.927.653-31.856l0.432-16.633h0.73a107.64,107.64,0,0,1,9.643,20.585c3.147,8.686,8.216,16.784,8.328,28.907a4.808,4.808,0,0,0-1.315.876C360.664,144.873,353.582,145.392,347.768,145.41ZM288.213,38.066c-1.351.85-2.985,1.4-4.1,2.488h-0.146V40.7a1.586,1.586,0,0,0,.878-0.146h0.585V40.7c-2.132,1.109-3.824,3.008-5.707,4.39-2.338,1.715-4.525,3.545-6.736,5.354-0.352.267-.689,0.528-1.05,0.8-0.441.332-.876,0.7-1.307,1.089-0.528.417-1.05,0.838-1.59,1.245-3.557,2.679-6.56,6.034-10.976,7.9a8.4,8.4,0,0,1-.847.294c-1.987-.252-3.775-1.139-5.442-0.457-1.475.6-.986,1.19-2.287,1.511a10.687,10.687,0,0,1-1.961-.177,16.467,16.467,0,0,0-1.668-.252c-3.221-1.484-10.337-1.828-13.809-.643-3.775,1.289-7.237,3.357-10.569,5.075-0.54.172-1.082,0.349-1.613,0.5a26.418,26.418,0,0,1-3.67.71,7.291,7.291,0,0,0-4.31.282,11.864,11.864,0,0,0-2.16,1.447,28.394,28.394,0,0,0-3.177,1.366c-0.786.408-1.767,1.38-3.22,1.024a8.292,8.292,0,0,1-2.632-1.239,20.527,20.527,0,0,0-2.26-1.594c-2.558-1.739-6.546-4.06-10.035-4.337l0.459-1.47,0.232-.015a5.045,5.045,0,0,0,.877-3.066,8.234,8.234,0,0,0-.854-0.414c-0.81-2.808-4.38-3.966-8.008-4.058a3.609,3.609,0,0,0-2.1-1.222c-0.213.439-.388,0.893-0.565,1.338a14.335,14.335,0,0,0-3.655.858c-1.386.564-2.476,1.721-3.8,2.2a32.932,32.932,0,0,0-4.244-3.366c-1.422-1.077-2.471-2.77-3.951-3.8-1.86-1.3-4.922-1.89-7.766-2.239a10.192,10.192,0,0,1-1-.381c-1.464-3.091-2.579-4.43-5.342-5.4a5.63,5.63,0,0,0-2.107-1.462l-5.343.381-1.311-.09a6.632,6.632,0,0,1-1.715-.759c-0.34-.286-0.641-0.6-1.025-0.878a5.487,5.487,0,0,0-.885-0.5,6.98,6.98,0,0,0-2.432-1.219l-3.769.163a10.085,10.085,0,0,1-2.134-.2c-2.96-.657-8.328-0.15-11.707-0.146a35.953,35.953,0,0,0-6.586.293c-1.233.266-2.9-.081-3.951,0.146s-2.5-.041-3.366.146H99.429a54.675,54.675,0,0,0-6,.439H90.795c-3.005.669-6.673,0.075-9.659,0.732H78.795a32.759,32.759,0,0,1-6.2.462,3.666,3.666,0,0,1-.532-1.6A1.579,1.579,0,0,0,72.5,38.98c4.46-2.172,8.255-6.116,12.273-8.76,4.786-3.149,9.633-4.793,14.9-7.446,6.548-3.3,14.126-7.4,21.478-10.073h2.63c2.255-.791,5.487-2.8,7.89-3.5,10.2-3.01,20.448-3.289,31.12-5.694,4.538-1.023,11.71,1.112,14.9-1.314,38.991-.827,67.152,7.322,92.923,19.271a129.3,129.3,0,0,1,14.026,7.884c2.641,1.625,6.7,2.25,7.89,5.256a2.042,2.042,0,0,1,.25.47C291.261,36.083,289.725,37.114,288.213,38.066ZM68.258,49.773c3.325-.727,7.342-0.143,10.683-0.878l4.537-.146c4.015-.875,8.831.007,12.878-0.878l6-.146a48.114,48.114,0,0,1,8.634-.439h3.366c2.058-.447,4.994-0.147,7.317-0.146l8.635,0.146a11.514,11.514,0,0,1,2.195.293l0.585,0.732a13.823,13.823,0,0,0,2.488,1.463c2.726,1.151,7.065,1.256,10.537,1.463,1.369,2.946,3.044,5.093,6.293,6.146l5.561,0.878c0.9,0.454,1.414,1.6,2.195,2.2,2.281,1.724,4.226,3.952,6.732,5.414l-0.014.027a13.238,13.238,0,0,0-3.2,1.114,2.954,2.954,0,0,0-.439,1.752h0.877a2.956,2.956,0,0,0,1.272.483,6.437,6.437,0,0,0,.923,2.917c1.06,2.111,3.436,5.306,7.317,4.39,2.8-.662,5.8-2.415,7.171-4.537,11.2,0.066,13.227,6.015,21.952,8.049,3.6,0.839,8.2-2.3,10.683-3.219a58.275,58.275,0,0,1,6-1.61l2.488-.293,8.634-2.927c2.29-.743,4.779-0.906,7.171-1.463,3.81-.888,8.429,0,12.439,0h3.22c3.034-.676,5.819-0.952,8.341-2.049,5.687-2.474,9.557-6.914,14.2-10.39,5.9-4.425,11.452-9.158,17.561-13.463,2.216-1.562,4.419-3.139,6.732-4.683,0.048-.032.1-0.081,0.152-0.12,3,3.051,9.118,6.8,12.338,9.2l3.945,4.818a160.319,160.319,0,0,1,17.094,19.271c1.531,2.1,4.827,5.328,7.109,8.185q-0.417,15.465-.833,30.932l-0.684,32.312c-5.126,1.248-12.049.839-18.3,0.839H288.157c-5.547,0-12.278.487-17.094-.438-12.933-29.287-31.735-50.523-64.871-59.566-12.341-3.368-32.293-2.339-42.956,1.314l-4.821.438c-0.4.134-1.357,1.152-1.753,1.314-2.406.981-4.187,0.779-6.575,1.752-0.718.293-1.484,1.426-2.192,1.752-3.629,1.673-6.885,2.722-10.081,4.818-1.479.97-2.906,3.041-4.383,3.942-17.692,10.8-27.884,28.944-35.5,49.93-0.118.326-1.226,1.086-1.315,1.314v3.065c-0.3,1.023-1.469,2.48-1.753,3.5v3.942a101.066,101.066,0,0,0-3.068,24.965v6.57c1.488,6.82,1.173,14.262,3.068,21.023,7.545,26.913,24.3,52.143,46.462,64.383,4.3,2.377,8.02,3.229,12.711,5.256,12.371,5.344,33.971,9.519,50.845,4.818a116.99,116.99,0,0,0,22.354-8.322c13.031-6.811,24.8-17.962,32.874-29.783,2.78-4.071,5.542-8.545,7.889-12.7,1.395-2.47,1.055-5.68,3.507-7.008,2.466-1.534,9.693-.438,13.149-0.438h31.594a17.822,17.822,0,0,1-1.982,5.393c-1.591,2.541-4.926,3.936-7.317,5.707a18,18,0,0,0-3.513,3.951c-1.188,1.6-3.893,3.514-5.561,4.683-3.05,2.138-6.474,3.915-9.658,5.853-1.385.843-3.08,1.279-4.244,2.342a7.552,7.552,0,0,1-1.871-.3,5.144,5.144,0,0,0-2.261-.809,7.8,7.8,0,0,0-5.966-.356,16.4,16.4,0,0,0-6,4.537,11.345,11.345,0,0,1-1.025,1.9l-2.487,1.025c-2.392,1.445-4.81,2.948-7.025,4.536a9.858,9.858,0,0,0-2.049,1.463c-1.379,1.739-2.854,5.578-.292,7.317a9.892,9.892,0,0,1-1.757,2.342c-0.681.97-1.309,2.1-1.9,3.073-1.11,1.82-1.19,3.676-1.756,6.146-0.251,1.093-.43,3.952.146,4.829v0.439h-0.146c-2.187-4.619-10.542-5.45-15.659-2.78-3.72,1.941-5.731,6-7.464,9.951-1.36,3.1-3.384,5.985-4.683,9.073a29.973,29.973,0,0,0-1.17,4.683,22.408,22.408,0,0,0,.439,9.073c0.231,0.936.1,1.965,0.585,2.634-0.352,1.543-2.783,2.207-3.658,3.365a98.4,98.4,0,0,0-6.147,9.22c-3.97.133-7.673,2.956-10.976,4.243-2.642-4.436-6.15-9-10.244-12-1.145-.839-2.456-1.616-3.658-2.342-1.263-.762-2.671-0.893-3.513-2.048-1.86-2.556-2.657-5.924-3.512-9.512l-0.585-5.854v-1.171c-2.033.85-4.011,1.8-6.147,2.488-2.382.766-4.886,0.829-7.024,1.756a19.788,19.788,0,0,0-7.317,6c-0.739.98-2.028,1.672-2.488,2.927-2.344.277-6.024,1.238-8.488,0.293a24.028,24.028,0,0,1-3.512-2.342,37.813,37.813,0,0,0-6.878-3.073,56.976,56.976,0,0,0-6-1.317c-0.953-.231-2.184.148-2.926-0.293-3.7.01-5.114,5.289-8.927,4.244-2.847-.78-4.833-3.847-6.732-5.707a22.99,22.99,0,0,0-9.659-5.707c-1.528-.454-3.245-0.39-4.829-0.732-3.816-.823-7.944,1.2-10.829-0.878-3.53-2.538-2.22-11.3-4.1-15.658a7.039,7.039,0,0,0-3.659-3.659c-1.019-.415-1.728-0.324-2.488-0.878a30.731,30.731,0,0,1-6-6l-1.463-1.318a8.841,8.841,0,0,0-1.9-2.2c-0.3-.192-2.051.63-2.634,0.878a62.361,62.361,0,0,1-6.147,2.2c-0.965.291-2.142,0.1-2.927,0.585-1.268-.287-2.306-1.832-3.366-2.488a13.268,13.268,0,0,0-7.317-1.61c0.047-37.539,1.317-75.246,1.317-112.972q0.146-16.755.293-33.512V122.8a29.166,29.166,0,0,0-.146-5.268q-0.073-7.755-.146-15.512a34.893,34.893,0,0,1-.293-6.439V93.236c-0.449-2.063.192-4.5-.293-6.731-0.348-1.6.091-3.51-.293-5.268-0.83-3.808-.2-8.27-1.024-12l-0.146-3.073c-0.031-.14-0.045-0.294-0.072-0.437a104.541,104.541,0,0,1,9.763-10.54c1.066-1.065,2.159-2.515,3.366-3.931l8.31-1.482h2.049ZM1214.57,355.509v0.339h0.34c0.46,4.564,3.08,6.972,3.39,11.188a11.14,11.14,0,0,1-3.39.339c-0.72.409-.76,0.164-1.7,0v-0.339h-0.34c-0.44-3.378-.71-8.472.34-11.527h1.36Zm7.95,0.954c2.13,4.846,7.72,6.437,11.39,9.759-0.1.326-.21,0.651-0.32,0.976h-6.19c-0.95.582-1.58-.036-2.6-0.325-1.82-2.853-4.61-6.729-4.23-10.736Zm9.33,0.492c2.08,0.523,3.28,1.849,4.83,2.628,5.57,2.813,13.49,4.622,21.04,4.818a4.638,4.638,0,0,1,.87,2.628,4.6,4.6,0,0,1-2.19.875c-1.68-.97-4.75.186-7.01-0.438-4.12-1.137-16.2-5.042-17.54-8.321C1231.29,358.25,1231.55,357.9,1231.85,356.955Zm48.66,6.57h4.38a4.563,4.563,0,0,1,.88,2.628,8.012,8.012,0,0,0-1.76,1.313c-2.65.1-7.11,0.833-8.76,0a3.555,3.555,0,0,1-1.32-.875c0.44-1,.33-1.215,1.32-1.752C1276.61,364.019,1279.28,364.4,1280.51,363.525Zm-7.02-128.767c-1.94,10.972-2.18,21.957-4.38,32.849l-2.19.438a4.681,4.681,0,0,1-.88-2.19c1.26-2.081.18-5.084,0.88-7.884,1.23-4.935,1.92-11.923,3.07-17.081,0.62-2.762-.07-5.177.88-7.008h2.19A1.485,1.485,0,0,0,1273.49,234.758Zm-5.25,36.791a1.482,1.482,0,0,0,.43.875l-0.87,5.256a8.027,8.027,0,0,1-2.63.438v-0.876c-0.64-1.011-.08-4.335.44-5.693h2.63Zm-9.31-93.715c2.8-1.639,9.16.058,11.67-1.5l2.63,0.376v0.752c1.3,2.027-.34,5.525-0.75,7.147q-0.375,5.64-.75,11.283c-0.21,5.179-1.87,13.78-3.02,18.806v4.137c-1.91,7.989-1.65,17.495-3.38,25.952a8.169,8.169,0,0,1-2.64.376v-0.752c-0.89-1.479-.37-5.347-0.37-7.522a42.354,42.354,0,0,0-.76-8.651v-7.522c-1.11-4.236.12-10.644-.75-14.669-0.91-4.209.42-10.222-.75-14.668C1259.17,188.012,1258.99,181.886,1258.93,177.834Zm26.84,95.9c-1.5.8-3.52,0.927-6.14,0.876a19.832,19.832,0,0,1-3.07,1.314c-0.52,5.594-1.91,13.023-3.94,17.958a9.467,9.467,0,0,1-3.07.438v-0.876c-0.92-1.424-.45-4.8,0-6.57,1.79-7.093.82-15.451,2.63-22.775,4.58-18.57,3.88-40.03,8.33-58.69v-6.569c1.24-4.64,1.94-11.784,3.07-16.644,0.66-2.847.07-5.427,0.87-7.445h1.76a4.638,4.638,0,0,1,.87,2.628c1.84,3.027.39,10.315,1.32,14.453a165.806,165.806,0,0,1,3.5,33.286h-0.43v0.438a17.257,17.257,0,0,0-5.26.438C1284.69,239.684,1286.16,260.445,1285.77,273.738Zm23.09-101.068c2.48,0.506,2.25,2.188,2.07,5.165-1.4,2.388-.35,6.37-1.04,9.3-1.56,6.658-1.62,14.542-3.1,21.008-0.98,4.281,1.77,8.111-3.44,8.265-0.12-.344-0.23-0.689-0.35-1.033-1.86-2.975-.13-7.578-1.03-11.709-0.52-2.33-.87-6.052-1.38-8.266v-5.854a67.945,67.945,0,0,1-1.38-14.12c0.34-.115.69-0.23,1.03-0.345C1302.24,173.4,1306.74,174.2,1308.86,172.67Zm12.12,18.412c0.72-3.026-.07-6.365,1.12-8.627,1.12,0.311,1.03.166,1.5,1.125,1.36,2.236-.43,8.25.38,12,1.7,7.855,1.86,18.705,1.88,27.381-1.69.893-4.76,0.8-7.51,0.75-0.13-.375-0.25-0.75-0.38-1.125-0.4-.655-0.03-8.656.38-10.5C1319.86,205.335,1319.4,197.68,1320.98,191.082Zm20.72-30.388h1.77a11.448,11.448,0,0,1,.35,3.534c-1.37,2.511-.49,10.362-1.41,14.49-0.81,3.642-.99,7.888-1.77,11.309v4.594a75.919,75.919,0,0,0-1.77,13.783,3.719,3.719,0,0,1-2.12.707c-1.48-2.845-.75-9.358-0.71-13.429-1.04-1.692.14-5.141-.35-7.422-0.54-2.52.32-6.595-.36-9.542-0.85-3.715-.72-9.361-0.7-14.137C1336.65,163.477,1340.11,162.348,1341.7,160.694Zm5.43,24.572a2.217,2.217,0,0,1-1.31.438,5.554,5.554,0,0,1,.44-4.818c1.71,0.28,1.67.3,2.19,1.752a4.747,4.747,0,0,0-.44,2.628h-0.88Zm0.88,22.775c3.12,1.18,1.88,11.958,1.75,16.206a1.644,1.644,0,0,0-.44.875,10.868,10.868,0,0,1-3.5.438,7.676,7.676,0,0,1-.88-4.379c1.23-1.922,1.88-10.005,2.19-12.7A1.5,1.5,0,0,0,1348.01,208.041Z"/>
</svg>
